<svg xmlns="http://www.w3.org/2000/svg" viewBox="0 0 64 64" role="img" aria-label="Iris">
  <rect x="4" y="4" width="56" height="56" rx="15" fill="#4f46e5" />
  <g>
    <path d="M32 33 C26 24 26 14 32 7 C38 14 38 24 32 33 Z" fill="#e0e7ff" transform="rotate(144 32 32)" />
    <path d="M32 33 C26 24 26 14 32 7 C38 14 38 24 32 33 Z" fill="#e0e7ff" transform="rotate(216 32 32)" />
    <path d="M32 33 C26 24 26 14 32 7 C38 14 38 24 32 33 Z" fill="#c7d2fe" transform="rotate(72 32 32)" />
    <path d="M32 33 C26 24 26 14 32 7 C38 14 38 24 32 33 Z" fill="#c7d2fe" transform="rotate(288 32 32)" />
    <path d="M32 33 C26 24 26 14 32 7 C38 14 38 24 32 33 Z" fill="#ffffff" />
  </g>
  <circle cx="32" cy="32" r="4.6" fill="#1e1b4b" />
</svg>
